<?xml version="1.0" standalone="no"?>
<!DOCTYPE svg PUBLIC "-//W3C//DTD SVG 20010904//EN"
 "http://www.w3.org/TR/2001/REC-SVG-20010904/DTD/svg10.dtd">
<svg version="1.0" xmlns="http://www.w3.org/2000/svg"
 width="2000.000000pt" height="2000.000000pt" viewBox="830 585 420 745"
 preserveAspectRatio="xMidYMid meet">

<g transform="translate(0.000000,2000.000000) scale(0.100000,-0.100000)"
fill="#000000" stroke="none">
<path d="M9005 13926 c-80 -25 -173 -103 -208 -173 -38 -75 -38 -87 -35 -1303
l3 -1185 26 -55 c38 -79 88 -131 162 -169 62 -31 70 -33 154 -29 109 4 89 -5
448 208 77 45 156 91 175 102 19 11 55 32 80 48 25 15 101 60 170 100 69 41
176 104 238 142 62 37 115 68 117 68 2 0 32 17 67 39 35 21 115 69 178 106
707 414 710 416 766 525 25 48 29 66 29 140 0 76 -4 93 -32 150 -17 36 -47 79
-65 96 -37 36 -1997 1158 -2071 1186 -54 21 -143 23 -202 4z"/>
<path d="M11604 12337 c-1502 -863 -3026 -1748 -3055 -1774 -52 -47 -83 -123
-76 -189 6 -58 33 -118 69 -151 12 -12 761 -448 1662 -969 1752 -1012 1671
-969 1769 -950 56 11 121 60 153 118 l29 53 3 1895 c2 2081 6 1955 -58 2032
-44 53 -102 78 -182 78 l-65 0 -249 -143z"/>
<path d="M8965 9749 c-97 -33 -157 -87 -208 -184 l-31 -60 -7 -230 c-4 -126
-8 -646 -10 -1155 l-4 -925 28 -59 c43 -93 88 -140 172 -182 95 -47 180 -55
270 -26 57 18 1901 1055 1973 1109 90 68 149 205 139 320 -8 82 -52 175 -109
230 -50 48 -1893 1136 -1973 1165 -68 24 -165 23 -240 -3z"/>
</g>
</svg>
