<?xml version="1.0" standalone="no"?>
<!DOCTYPE svg PUBLIC "-//W3C//DTD SVG 20010904//EN"
 "http://www.w3.org/TR/2001/REC-SVG-20010904/DTD/svg10.dtd">
<svg version="1.0" xmlns="http://www.w3.org/2000/svg"
 width="2000.000000pt" height="2000.000000pt" viewBox="830 585 420 745"
 preserveAspectRatio="xMidYMid meet">

<g transform="translate(0.000000,2000.000000) scale(0.100000,-0.100000)"
fill="#000000" stroke="none">
<path d="M9040 13910 c-31 -4 -73 -18 -95 -32 -41 -26 -111 -96 -138 -139 -13
-21 -16 -163 -21 -1089 -4 -586 -4 -1153 0 -1259 l7 -194 46 -60 c107 -140
296 -168 461 -67 25 15 101 60 170 100 69 40 153 90 188 111 35 22 65 39 68
39 2 0 33 17 67 39 34 21 118 71 187 111 69 41 176 104 238 142 62 37 115 68
117 68 2 0 32 17 67 39 35 21 115 69 178 106 707 414 710 416 766 525 25 48
29 66 28 140 0 65 -5 96 -22 132 -25 57 -95 136 -137 155 -47 21 -137 73 -164
94 -13 11 -30 19 -37 19 -7 0 -19 6 -26 14 -13 13 -115 72 -168 98 -14 7 -36
20 -49 30 -13 10 -32 18 -42 18 -11 0 -19 4 -19 9 0 10 -152 101 -169 101 -5
0 -16 6 -24 14 -8 8 -29 22 -48 31 -42 20 -94 49 -134 75 -16 11 -45 27 -64
36 -19 8 -40 22 -48 30 -8 8 -23 14 -32 14 -10 0 -24 7 -31 16 -8 8 -27 22
-44 30 -17 7 -44 23 -61 34 -16 11 -41 24 -54 30 -13 6 -35 19 -49 30 -13 11
-33 20 -42 20 -10 0 -20 6 -23 13 -3 6 -27 23 -53 37 -27 13 -60 32 -73 42
-13 10 -31 18 -41 18 -9 0 -25 9 -35 20 -10 11 -26 20 -35 20 -10 0 -23 7 -30
16 -8 8 -27 22 -44 30 -38 18 -69 36 -87 51 -8 6 -25 14 -37 18 -13 4 -33 16
-43 26 -10 10 -27 19 -37 19 -11 0 -27 9 -37 20 -10 11 -28 20 -41 20 -13 0
-27 7 -32 17 -15 27 -115 37 -222 23z"/>
<path d="M11830 12440 c-13 -11 -31 -20 -40 -20 -9 0 -25 -9 -35 -20 -10 -11
-23 -20 -29 -20 -6 0 -35 -16 -65 -35 -29 -19 -57 -35 -62 -35 -5 0 -18 -9
-28 -19 -20 -20 -58 -43 -103 -62 -16 -6 -28 -14 -28 -19 0 -4 -33 -18 -72
-30 -40 -13 -109 -44 -153 -68 -186 -105 -1692 -976 -1717 -994 -16 -11 -28
-25 -28 -32 0 -18 -71 -66 -97 -66 -11 0 -30 -8 -41 -17 -12 -10 -38 -29 -58
-43 -20 -14 -43 -33 -52 -42 -9 -10 -24 -18 -33 -18 -9 0 -28 -9 -42 -20 -14
-11 -34 -20 -45 -20 -10 0 -27 -9 -37 -20 -10 -11 -28 -20 -40 -20 -12 0 -30
-9 -40 -20 -10 -11 -28 -20 -40 -20 -12 0 -30 -9 -40 -20 -10 -11 -25 -20 -33
-20 -8 0 -33 -15 -56 -34 -23 -18 -52 -37 -66 -41 -14 -4 -32 -13 -40 -20 -8
-7 -26 -16 -40 -20 -41 -13 -135 -104 -156 -152 -7 -17 -18 -34 -24 -38 -16
-10 -12 -101 5 -115 8 -7 15 -21 15 -33 0 -37 83 -103 250 -197 91 -51 300
-172 465 -268 1269 -737 1452 -842 1472 -842 7 0 35 -17 63 -38 41 -32 638
-380 1003 -585 126 -71 201 -75 289 -17 28 19 55 49 74 82 l29 53 0 1910 0
1910 -28 57 c-40 81 -88 108 -195 108 -65 0 -83 -4 -102 -20z"/>
<path d="M9088 9745 c-4 -4 -40 -11 -81 -15 -53 -5 -83 -14 -108 -31 -62 -43
-109 -93 -109 -115 0 -12 -8 -32 -18 -45 -25 -32 -31 -120 -36 -527 -3 -180
-9 -457 -15 -617 -5 -159 -10 -483 -10 -720 -1 -407 0 -432 19 -474 11 -24 20
-56 20 -71 0 -32 61 -115 109 -149 92 -65 214 -86 316 -53 61 19 1908 1059
1975 1111 53 42 108 128 126 200 20 81 12 159 -26 239 -53 112 -91 141 -435
334 -94 53 -191 109 -215 126 -25 16 -227 136 -450 267 -223 131 -502 295
-620 365 -118 70 -234 137 -257 149 -42 21 -172 39 -185 26z"/>
</g>
</svg>
